<svg id="Calque_1" data-name="Calque 1" xmlns="http://www.w3.org/2000/svg" viewBox="0 0 373.02 98.81"><defs><style>.cls-1{fill:#e94838;}.cls-2{fill:#fce3e3;}</style></defs><path class="cls-1" d="M29.85,32.1H42.8v5.83a19.42,19.42,0,0,1,5.88-5.11,15.7,15.7,0,0,1,7.25-1.53q5.77,0,9,3.39t3.26,10.47V67.92h-14V48.22q0-3.37-1.26-4.77a4.56,4.56,0,0,0-3.56-1.4,5.09,5.09,0,0,0-4.1,1.89q-1.57,1.89-1.57,6.78v17.2H29.85Z"/><path class="cls-1" d="M116.84,53.42H89a8.79,8.79,0,0,0,1.81,4.92A6.63,6.63,0,0,0,96,60.67a8,8,0,0,0,3.9-1,9.09,9.09,0,0,0,2.42-2.26l13.71,1.25a19.5,19.5,0,0,1-7.59,7.74Q104,68.73,95.71,68.73c-4.8,0-8.59-.67-11.34-2a16.61,16.61,0,0,1-6.86-6.38A19.06,19.06,0,0,1,74.8,50.08q0-8.4,5.45-13.6t15-5.19q7.8,0,12.31,2.33a15.81,15.81,0,0,1,6.87,6.74q2.35,4.43,2.36,11.51Zm-14.15-6.58q-.42-4-2.17-5.7a6.87,6.87,0,0,0-9.93.88A9.33,9.33,0,0,0,89,46.84Z"/><path class="cls-1" d="M148.49,32.1h13V65.93l0,1.59A14.78,14.78,0,0,1,160.09,74a13.67,13.67,0,0,1-3.86,4.94,15.27,15.27,0,0,1-6.12,2.73,38.61,38.61,0,0,1-8.49.84q-11,0-15-3.24a10.47,10.47,0,0,1-4.08-8.66c0-.46,0-1.06.07-1.83l13.5,1.52a4.38,4.38,0,0,0,1.57,2.57,6.77,6.77,0,0,0,3.86,1,5.91,5.91,0,0,0,4.5-1.58q1.49-1.59,1.49-5.54V61.31a14.43,14.43,0,0,1-4.11,3.48,14.72,14.72,0,0,1-6.93,1.68A13.8,13.8,0,0,1,124.7,60.2q-3.18-4.46-3.18-11.78,0-8.36,4.1-12.75a14,14,0,0,1,10.73-4.38,15.25,15.25,0,0,1,7,1.41,15.23,15.23,0,0,1,5.15,4.69ZM135.4,49.47c0,2.59.55,4.5,1.67,5.75a6,6,0,0,0,8.77-.07q1.75-1.93,1.76-5.85a8.75,8.75,0,0,0-1.85-6,5.81,5.81,0,0,0-4.51-2.07,5.26,5.26,0,0,0-4.25,1.9Q135.4,45.06,135.4,49.47Z"/><path class="cls-1" d="M168.21,50.11a17.83,17.83,0,0,1,5.6-13.51q5.61-5.31,15.15-5.31,10.89,0,16.47,6.24a18,18,0,0,1,4.48,12.38,17.83,17.83,0,0,1-5.56,13.54Q198.8,68.73,189,68.73q-8.75,0-14.15-4.38A17.52,17.52,0,0,1,168.21,50.11Zm13.94,0q0,4.79,2,7.08a6.49,6.49,0,0,0,9.88,0c1.28-1.51,1.93-3.93,1.93-7.26q0-4.65-2-6.93a6.1,6.1,0,0,0-4.82-2.28,6.32,6.32,0,0,0-5,2.31Q182.15,45.35,182.15,50.08Z"/><path class="cls-1" d="M214.15,58,228,56.69a6.66,6.66,0,0,0,2.4,3.47,7.14,7.14,0,0,0,4.1,1.05A7,7,0,0,0,238.79,60a2.61,2.61,0,0,0,1.2-2.19,2.51,2.51,0,0,0-1.58-2.29,29,29,0,0,0-6-1.41,62.58,62.58,0,0,1-10.06-2.31,10.62,10.62,0,0,1-4.75-3.59,9.25,9.25,0,0,1-1.94-5.76,9.35,9.35,0,0,1,2.09-6.1,12.37,12.37,0,0,1,5.74-3.83,31,31,0,0,1,9.81-1.26,34.07,34.07,0,0,1,9.59,1,12.54,12.54,0,0,1,5.16,3,15.8,15.8,0,0,1,3.43,5.57l-13.19,1.28a4.42,4.42,0,0,0-1.71-2.53,7,7,0,0,0-4-1.08,5.69,5.69,0,0,0-3.44.83,2.43,2.43,0,0,0-1.07,2,2.13,2.13,0,0,0,1.36,2,22.41,22.41,0,0,0,5.95,1.21,41.25,41.25,0,0,1,10.32,2.16,11.33,11.33,0,0,1,5.18,3.94,9.57,9.57,0,0,1,1.79,5.63,11,11,0,0,1-1.89,6,12.84,12.84,0,0,1-6,4.67q-4.1,1.74-11.13,1.73-9.94,0-14.17-2.8A12.54,12.54,0,0,1,214.15,58Z"/><path class="cls-1" d="M297.61,67.92h-13v-5.8a19.05,19.05,0,0,1-5.86,5.1,15.79,15.79,0,0,1-7.26,1.51q-5.75,0-9-3.39T259.23,54.9V32.1h14V51.8c0,2.25.42,3.84,1.26,4.79A4.55,4.55,0,0,0,278,58a5.09,5.09,0,0,0,4.08-1.89q1.59-1.89,1.59-6.78V32.1h13.91Z"/><path class="cls-1" d="M344.27,18.47V67.92h-13V62.63a17.43,17.43,0,0,1-5,4.55,14.34,14.34,0,0,1-6.7,1.55q-7.43,0-11.33-5.56a22.92,22.92,0,0,1-3.92-13.53q0-8.91,4.33-13.63a14.22,14.22,0,0,1,11-4.72,15.5,15.5,0,0,1,5.9,1.08,13.4,13.4,0,0,1,4.7,3.24V18.47ZM330.32,49.91q0-4.21-1.81-6.29a5.8,5.8,0,0,0-4.58-2.08,5.1,5.1,0,0,0-4.07,2q-1.64,2-1.64,6.68c0,2.93.57,5.07,1.69,6.43a5.25,5.25,0,0,0,4.19,2,5.65,5.65,0,0,0,4.45-2.06Q330.32,54.57,330.32,49.91Z"/><polygon class="cls-2" points="95.3 17.63 107.27 17.63 96.23 27.71 89.56 27.71 95.3 17.63"/><path class="cls-2" d="M227.62,82.31V74.1h-3.07V73h7.38v1.1h-3.08v8.21Z"/><path class="cls-2" d="M233.21,82.31V73h4.13a5.44,5.44,0,0,1,1.89.25,2.06,2.06,0,0,1,1,.89,2.62,2.62,0,0,1,.39,1.4,2.37,2.37,0,0,1-.64,1.67,3.26,3.26,0,0,1-2,.86,3.55,3.55,0,0,1,.74.46,6.5,6.5,0,0,1,1,1.24l1.62,2.54h-1.55l-1.23-1.94c-.36-.56-.66-1-.89-1.28a2.55,2.55,0,0,0-.62-.62,1.77,1.77,0,0,0-.57-.25,3.47,3.47,0,0,0-.68,0h-1.43v4.14Zm1.23-5.2h2.65a3.88,3.88,0,0,0,1.32-.18,1.32,1.32,0,0,0,.72-.56,1.45,1.45,0,0,0,.25-.83,1.4,1.4,0,0,0-.48-1.09,2.25,2.25,0,0,0-1.51-.42h-2.95Z"/><path class="cls-2" d="M241.56,82.31,245.13,73h1.33l3.81,9.31h-1.41l-1.08-2.82h-3.89l-1,2.82Zm2.68-3.83h3.16l-1-2.57c-.3-.79-.52-1.43-.67-1.93a10.41,10.41,0,0,1-.5,1.77Z"/><path class="cls-2" d="M251.24,82.31V73h1.26l4.89,7.31V73h1.18v9.31h-1.26L252.42,75v7.32Z"/><path class="cls-2" d="M260.22,79.32l1.16-.11a2.65,2.65,0,0,0,.38,1.15,2.13,2.13,0,0,0,.94.72,3.44,3.44,0,0,0,1.43.28,3.39,3.39,0,0,0,1.24-.21,1.79,1.79,0,0,0,.81-.57,1.39,1.39,0,0,0,.26-.8,1.29,1.29,0,0,0-.25-.77,1.88,1.88,0,0,0-.84-.54,16.14,16.14,0,0,0-1.66-.46,8.58,8.58,0,0,1-1.8-.58,2.5,2.5,0,0,1-1-.87,2.1,2.1,0,0,1-.33-1.16,2.42,2.42,0,0,1,.4-1.31,2.49,2.49,0,0,1,1.17-.93,4.45,4.45,0,0,1,1.71-.32,4.65,4.65,0,0,1,1.82.33,2.67,2.67,0,0,1,1.22,1,2.87,2.87,0,0,1,.46,1.47l-1.18.09a1.91,1.91,0,0,0-.65-1.33,2.48,2.48,0,0,0-1.62-.45,2.57,2.57,0,0,0-1.63.41,1.22,1.22,0,0,0-.51,1,1.07,1.07,0,0,0,.36.83,5.15,5.15,0,0,0,1.86.66,13.75,13.75,0,0,1,2.06.59,2.87,2.87,0,0,1,1.2.95,2.34,2.34,0,0,1,.39,1.33,2.58,2.58,0,0,1-.43,1.4,2.74,2.74,0,0,1-1.22,1,4.3,4.3,0,0,1-1.79.36,5.45,5.45,0,0,1-2.12-.36A3,3,0,0,1,260.73,81,3.22,3.22,0,0,1,260.22,79.32Z"/><path class="cls-2" d="M269.37,82.31V73h6.28v1.1h-5V77H275v1.1H270.6v4.23Z"/><path class="cls-2" d="M276.87,77.77a5,5,0,0,1,1.25-3.62,4.21,4.21,0,0,1,3.21-1.32,4.45,4.45,0,0,1,2.32.62,4,4,0,0,1,1.58,1.72,6,6,0,0,1,0,5,3.89,3.89,0,0,1-1.62,1.69,4.63,4.63,0,0,1-2.26.57,4.41,4.41,0,0,1-2.34-.63,4,4,0,0,1-1.57-1.73A5.24,5.24,0,0,1,276.87,77.77Zm1.27,0a3.74,3.74,0,0,0,.91,2.65,3,3,0,0,0,2.27,1,3,3,0,0,0,2.29-1,3.93,3.93,0,0,0,.89-2.77,4.67,4.67,0,0,0-.38-2A3,3,0,0,0,283,74.36a3.08,3.08,0,0,0-1.66-.46,3.14,3.14,0,0,0-2.25.89A4,4,0,0,0,278.14,77.79Z"/><path class="cls-2" d="M287.38,82.31V73h4.13a5.41,5.41,0,0,1,1.89.25,2.06,2.06,0,0,1,1,.89,2.62,2.62,0,0,1,.39,1.4,2.33,2.33,0,0,1-.64,1.67,3.26,3.26,0,0,1-2,.86,3.55,3.55,0,0,1,.74.46,6.5,6.5,0,0,1,1,1.24l1.62,2.54H294l-1.23-1.94a14.3,14.3,0,0,0-.89-1.28,2.55,2.55,0,0,0-.62-.62,1.73,1.73,0,0,0-.56-.25,3.59,3.59,0,0,0-.69,0h-1.43v4.14Zm1.23-5.2h2.65a3.88,3.88,0,0,0,1.32-.18,1.32,1.32,0,0,0,.72-.56,1.45,1.45,0,0,0,.25-.83,1.4,1.4,0,0,0-.48-1.09,2.25,2.25,0,0,0-1.51-.42h-2.95Z"/><path class="cls-2" d="M296.71,82.31V73h1.85l2.21,6.59c.2.61.35,1.07.44,1.38.11-.34.27-.84.5-1.5L303.93,73h1.66v9.31H304.4V74.52l-2.7,7.79h-1.11l-2.69-7.93v7.93Z"/><path class="cls-2" d="M306.56,82.31,310.13,73h1.33l3.81,9.31h-1.41l-1.08-2.82h-3.89l-1,2.82Zm2.68-3.83h3.16l-1-2.57c-.3-.79-.52-1.43-.67-1.93a10.41,10.41,0,0,1-.5,1.77Z"/><path class="cls-2" d="M317.65,82.31V74.1h-3.06V73H322v1.1h-3.08v8.21Z"/><path class="cls-2" d="M323.43,82.31V73h1.24v9.31Z"/><path class="cls-2" d="M326.46,77.77a5,5,0,0,1,1.25-3.62,4.21,4.21,0,0,1,3.21-1.32,4.45,4.45,0,0,1,2.32.62,4,4,0,0,1,1.58,1.72,6,6,0,0,1,0,5,3.89,3.89,0,0,1-1.62,1.69,4.65,4.65,0,0,1-2.26.57,4.45,4.45,0,0,1-2.35-.63A4,4,0,0,1,327,80.1,5.24,5.24,0,0,1,326.46,77.77Zm1.27,0a3.69,3.69,0,0,0,.91,2.65,3.14,3.14,0,0,0,4.55,0,3.93,3.93,0,0,0,.9-2.77,4.82,4.82,0,0,0-.38-2,3,3,0,0,0-1.12-1.32,3.08,3.08,0,0,0-1.66-.46,3.11,3.11,0,0,0-2.25.89A4,4,0,0,0,327.73,77.79Z"/><path class="cls-2" d="M336.94,82.31V73h1.26l4.89,7.31V73h1.18v9.31H343L338.12,75v7.32Z"/></svg>